<mxfile host="app.diagrams.net" agent="Mozilla/5.0 (X11; Linux x86_64; rv:137.0) Gecko/20100101 Firefox/137.0" version="26.2.14">
  <diagram id="R2lEEEUBdFMjLlhIrx00" name="Page-1">
    <mxGraphModel dx="4191" dy="2480" grid="1" gridSize="10" guides="1" tooltips="1" connect="1" arrows="1" fold="1" page="1" pageScale="1" pageWidth="850" pageHeight="1100" math="0" shadow="0" extFonts="Permanent Marker^https://fonts.googleapis.com/css?family=Permanent+Marker">
      <root>
        <mxCell id="0" />
        <mxCell id="1" parent="0" />
        <mxCell id="vaJxQGinbK6b_5L8dUOn-1" value="cliente" style="rounded=0;whiteSpace=wrap;html=1;" vertex="1" parent="1">
          <mxGeometry x="-680" y="-10" width="60" height="30" as="geometry" />
        </mxCell>
        <mxCell id="vaJxQGinbK6b_5L8dUOn-2" value="nombre_completo" style="ellipse;whiteSpace=wrap;html=1;" vertex="1" parent="1">
          <mxGeometry x="-750" y="-100" width="120" height="40" as="geometry" />
        </mxCell>
        <mxCell id="vaJxQGinbK6b_5L8dUOn-3" value="nombre" style="ellipse;whiteSpace=wrap;html=1;" vertex="1" parent="1">
          <mxGeometry x="-790" y="-150" width="60" height="30" as="geometry" />
        </mxCell>
        <mxCell id="vaJxQGinbK6b_5L8dUOn-4" value="apellido" style="ellipse;whiteSpace=wrap;html=1;" vertex="1" parent="1">
          <mxGeometry x="-640" y="-150" width="70" height="30" as="geometry" />
        </mxCell>
        <mxCell id="vaJxQGinbK6b_5L8dUOn-5" value="Tren" style="rounded=0;whiteSpace=wrap;html=1;" vertex="1" parent="1">
          <mxGeometry x="149.5" y="352.5" width="60" height="30" as="geometry" />
        </mxCell>
        <mxCell id="vaJxQGinbK6b_5L8dUOn-6" value="" style="endArrow=none;html=1;rounded=0;entryX=0.5;entryY=1;entryDx=0;entryDy=0;exitX=0.313;exitY=0.038;exitDx=0;exitDy=0;exitPerimeter=0;" edge="1" parent="1" source="vaJxQGinbK6b_5L8dUOn-2" target="vaJxQGinbK6b_5L8dUOn-3">
          <mxGeometry width="50" height="50" relative="1" as="geometry">
            <mxPoint x="-640" y="-10" as="sourcePoint" />
            <mxPoint x="-590" y="-60" as="targetPoint" />
          </mxGeometry>
        </mxCell>
        <mxCell id="vaJxQGinbK6b_5L8dUOn-7" value="&lt;u&gt;ID_Tren&lt;/u&gt;" style="ellipse;whiteSpace=wrap;html=1;" vertex="1" parent="1">
          <mxGeometry x="71" y="250" width="70" height="30" as="geometry" />
        </mxCell>
        <mxCell id="vaJxQGinbK6b_5L8dUOn-8" value="" style="endArrow=none;html=1;rounded=0;entryX=0;entryY=1;entryDx=0;entryDy=0;exitX=0.72;exitY=0.01;exitDx=0;exitDy=0;exitPerimeter=0;" edge="1" parent="1" source="vaJxQGinbK6b_5L8dUOn-2" target="vaJxQGinbK6b_5L8dUOn-4">
          <mxGeometry width="50" height="50" relative="1" as="geometry">
            <mxPoint x="-702" y="-68" as="sourcePoint" />
            <mxPoint x="-750" y="-110" as="targetPoint" />
          </mxGeometry>
        </mxCell>
        <mxCell id="vaJxQGinbK6b_5L8dUOn-9" value="" style="endArrow=none;html=1;rounded=0;entryX=0.5;entryY=1;entryDx=0;entryDy=0;exitX=0.25;exitY=0;exitDx=0;exitDy=0;" edge="1" parent="1" source="vaJxQGinbK6b_5L8dUOn-1" target="vaJxQGinbK6b_5L8dUOn-2">
          <mxGeometry width="50" height="50" relative="1" as="geometry">
            <mxPoint x="-665" y="-90" as="sourcePoint" />
            <mxPoint x="-620" y="-114" as="targetPoint" />
            <Array as="points">
              <mxPoint x="-675" y="-28" />
            </Array>
          </mxGeometry>
        </mxCell>
        <mxCell id="vaJxQGinbK6b_5L8dUOn-10" value="NÃºmero&lt;span style=&quot;color: rgba(0, 0, 0, 0); font-family: monospace; font-size: 0px; text-align: start; text-wrap-mode: nowrap;&quot;&gt;%3CmxGraphModel%3E%3Croot%3E%3CmxCell%20id%3D%220%22%2F%3E%3CmxCell%20id%3D%221%22%20parent%3D%220%22%2F%3E%3CmxCell%20id%3D%222%22%20value%3D%22ID_Tren%22%20style%3D%22ellipse%3BwhiteSpace%3Dwrap%3Bhtml%3D1%3B%22%20vertex%3D%221%22%20parent%3D%221%22%3E%3CmxGeometry%20x%3D%22550%22%20y%3D%22140%22%20width%3D%2270%22%20height%3D%2230%22%20as%3D%22geometry%22%2F%3E%3C%2FmxCell%3E%3C%2Froot%3E%3C%2FmxGraphModel%3E&lt;/span&gt;" style="ellipse;whiteSpace=wrap;html=1;" vertex="1" parent="1">
          <mxGeometry x="21" y="310" width="70" height="30" as="geometry" />
        </mxCell>
        <mxCell id="vaJxQGinbK6b_5L8dUOn-11" value="numero" style="ellipse;whiteSpace=wrap;html=1;" vertex="1" parent="1">
          <mxGeometry x="-810" y="-50" width="70" height="30" as="geometry" />
        </mxCell>
        <mxCell id="vaJxQGinbK6b_5L8dUOn-12" value="Nombre" style="ellipse;whiteSpace=wrap;html=1;" vertex="1" parent="1">
          <mxGeometry x="21" y="395" width="70" height="30" as="geometry" />
        </mxCell>
        <mxCell id="vaJxQGinbK6b_5L8dUOn-13" value="fecha_nacimiento" style="ellipse;whiteSpace=wrap;html=1;" vertex="1" parent="1">
          <mxGeometry x="-850" y="30" width="115" height="30" as="geometry" />
        </mxCell>
        <mxCell id="vaJxQGinbK6b_5L8dUOn-14" value="Capacidad_Total" style="ellipse;whiteSpace=wrap;html=1;" vertex="1" parent="1">
          <mxGeometry x="229.5" y="390" width="100" height="30" as="geometry" />
        </mxCell>
        <mxCell id="vaJxQGinbK6b_5L8dUOn-15" value="documento" style="ellipse;whiteSpace=wrap;html=1;" vertex="1" parent="1">
          <mxGeometry x="-630" y="-95" width="70" height="30" as="geometry" />
        </mxCell>
        <mxCell id="vaJxQGinbK6b_5L8dUOn-16" value="genero" style="ellipse;whiteSpace=wrap;html=1;" vertex="1" parent="1">
          <mxGeometry x="-810" y="-10" width="70" height="30" as="geometry" />
        </mxCell>
        <mxCell id="vaJxQGinbK6b_5L8dUOn-17" value="ID_Clase" style="ellipse;whiteSpace=wrap;html=1;" vertex="1" parent="1">
          <mxGeometry x="211" y="260" width="70" height="30" as="geometry" />
        </mxCell>
        <mxCell id="vaJxQGinbK6b_5L8dUOn-18" value="correo" style="ellipse;whiteSpace=wrap;html=1;" vertex="1" parent="1">
          <mxGeometry x="-830" y="70" width="110" height="30" as="geometry" />
        </mxCell>
        <mxCell id="vaJxQGinbK6b_5L8dUOn-19" value="nacionalidad" style="ellipse;whiteSpace=wrap;html=1;" vertex="1" parent="1">
          <mxGeometry x="-590" y="-50" width="70" height="30" as="geometry" />
        </mxCell>
        <mxCell id="vaJxQGinbK6b_5L8dUOn-20" value="" style="endArrow=none;html=1;rounded=0;entryX=0.322;entryY=0.949;entryDx=0;entryDy=0;entryPerimeter=0;exitX=0.5;exitY=0;exitDx=0;exitDy=0;" edge="1" parent="1" source="vaJxQGinbK6b_5L8dUOn-5" target="vaJxQGinbK6b_5L8dUOn-17">
          <mxGeometry width="50" height="50" relative="1" as="geometry">
            <mxPoint x="161" y="310" as="sourcePoint" />
            <mxPoint x="211" y="260" as="targetPoint" />
          </mxGeometry>
        </mxCell>
        <mxCell id="vaJxQGinbK6b_5L8dUOn-21" value="edad" style="ellipse;whiteSpace=wrap;html=1;align=center;dashed=1;" vertex="1" parent="1">
          <mxGeometry x="-780" y="120" width="50" height="20" as="geometry" />
        </mxCell>
        <mxCell id="vaJxQGinbK6b_5L8dUOn-22" value="" style="endArrow=none;html=1;rounded=0;entryX=1;entryY=0.5;entryDx=0;entryDy=0;" edge="1" parent="1" source="vaJxQGinbK6b_5L8dUOn-14" target="vaJxQGinbK6b_5L8dUOn-5">
          <mxGeometry width="50" height="50" relative="1" as="geometry">
            <mxPoint x="121" y="390" as="sourcePoint" />
            <mxPoint x="171" y="340" as="targetPoint" />
          </mxGeometry>
        </mxCell>
        <mxCell id="vaJxQGinbK6b_5L8dUOn-23" value="" style="endArrow=none;html=1;rounded=0;exitX=0.598;exitY=0.018;exitDx=0;exitDy=0;exitPerimeter=0;entryX=0;entryY=0.5;entryDx=0;entryDy=0;" edge="1" parent="1" source="vaJxQGinbK6b_5L8dUOn-12" target="vaJxQGinbK6b_5L8dUOn-5">
          <mxGeometry width="50" height="50" relative="1" as="geometry">
            <mxPoint x="81" y="390" as="sourcePoint" />
            <mxPoint x="131" y="340" as="targetPoint" />
          </mxGeometry>
        </mxCell>
        <mxCell id="vaJxQGinbK6b_5L8dUOn-24" value="" style="endArrow=none;html=1;rounded=0;entryX=0.637;entryY=1.007;entryDx=0;entryDy=0;entryPerimeter=0;exitX=0.5;exitY=0;exitDx=0;exitDy=0;" edge="1" parent="1" source="vaJxQGinbK6b_5L8dUOn-5" target="vaJxQGinbK6b_5L8dUOn-7">
          <mxGeometry width="50" height="50" relative="1" as="geometry">
            <mxPoint x="141" y="310" as="sourcePoint" />
            <mxPoint x="191" y="260" as="targetPoint" />
          </mxGeometry>
        </mxCell>
        <mxCell id="vaJxQGinbK6b_5L8dUOn-25" value="" style="endArrow=none;html=1;rounded=0;entryX=0.971;entryY=0.68;entryDx=0;entryDy=0;exitX=0;exitY=0.25;exitDx=0;exitDy=0;entryPerimeter=0;" edge="1" parent="1" source="vaJxQGinbK6b_5L8dUOn-1" target="vaJxQGinbK6b_5L8dUOn-11">
          <mxGeometry width="50" height="50" relative="1" as="geometry">
            <mxPoint x="-665" y="-90" as="sourcePoint" />
            <mxPoint x="-620" y="-114" as="targetPoint" />
          </mxGeometry>
        </mxCell>
        <mxCell id="vaJxQGinbK6b_5L8dUOn-26" value="" style="endArrow=none;html=1;rounded=0;exitX=1;exitY=1;exitDx=0;exitDy=0;entryX=0.5;entryY=0;entryDx=0;entryDy=0;" edge="1" parent="1" source="vaJxQGinbK6b_5L8dUOn-10" target="vaJxQGinbK6b_5L8dUOn-5">
          <mxGeometry width="50" height="50" relative="1" as="geometry">
            <mxPoint x="71" y="370" as="sourcePoint" />
            <mxPoint x="121" y="320" as="targetPoint" />
          </mxGeometry>
        </mxCell>
        <mxCell id="vaJxQGinbK6b_5L8dUOn-27" value="" style="endArrow=none;html=1;rounded=0;entryX=0;entryY=1;entryDx=0;entryDy=0;exitX=0.5;exitY=0;exitDx=0;exitDy=0;" edge="1" parent="1" source="vaJxQGinbK6b_5L8dUOn-1" target="vaJxQGinbK6b_5L8dUOn-15">
          <mxGeometry relative="1" as="geometry">
            <mxPoint x="-730" as="sourcePoint" />
            <mxPoint x="-570" as="targetPoint" />
          </mxGeometry>
        </mxCell>
        <mxCell id="vaJxQGinbK6b_5L8dUOn-28" value="" style="endArrow=none;html=1;rounded=0;entryX=0;entryY=0.5;entryDx=0;entryDy=0;exitX=1;exitY=0.5;exitDx=0;exitDy=0;" edge="1" parent="1" source="vaJxQGinbK6b_5L8dUOn-16" target="vaJxQGinbK6b_5L8dUOn-1">
          <mxGeometry relative="1" as="geometry">
            <mxPoint x="-790" y="30" as="sourcePoint" />
            <mxPoint x="-630" y="30" as="targetPoint" />
          </mxGeometry>
        </mxCell>
        <mxCell id="vaJxQGinbK6b_5L8dUOn-29" value="" style="endArrow=none;html=1;rounded=0;exitX=0.709;exitY=0.031;exitDx=0;exitDy=0;entryX=0;entryY=0.75;entryDx=0;entryDy=0;exitPerimeter=0;" edge="1" parent="1" source="vaJxQGinbK6b_5L8dUOn-13" target="vaJxQGinbK6b_5L8dUOn-1">
          <mxGeometry relative="1" as="geometry">
            <mxPoint x="-730" y="15" as="sourcePoint" />
            <mxPoint x="-680" y="20" as="targetPoint" />
          </mxGeometry>
        </mxCell>
        <mxCell id="vaJxQGinbK6b_5L8dUOn-30" value="" style="endArrow=none;html=1;rounded=0;exitX=0.5;exitY=0;exitDx=0;exitDy=0;entryX=0.068;entryY=1.031;entryDx=0;entryDy=0;entryPerimeter=0;" edge="1" parent="1" source="vaJxQGinbK6b_5L8dUOn-18" target="vaJxQGinbK6b_5L8dUOn-1">
          <mxGeometry relative="1" as="geometry">
            <mxPoint x="-735" y="51" as="sourcePoint" />
            <mxPoint x="-670" y="23" as="targetPoint" />
          </mxGeometry>
        </mxCell>
        <mxCell id="vaJxQGinbK6b_5L8dUOn-31" value="" style="endArrow=none;html=1;rounded=0;exitX=1;exitY=0;exitDx=0;exitDy=0;entryX=0.147;entryY=1.04;entryDx=0;entryDy=0;entryPerimeter=0;" edge="1" parent="1" source="vaJxQGinbK6b_5L8dUOn-21" target="vaJxQGinbK6b_5L8dUOn-1">
          <mxGeometry relative="1" as="geometry">
            <mxPoint x="-725" y="90" as="sourcePoint" />
            <mxPoint x="-666" y="31" as="targetPoint" />
          </mxGeometry>
        </mxCell>
        <mxCell id="vaJxQGinbK6b_5L8dUOn-32" value="" style="endArrow=none;html=1;rounded=0;exitX=0.75;exitY=0;exitDx=0;exitDy=0;entryX=0;entryY=0.5;entryDx=0;entryDy=0;" edge="1" parent="1" source="vaJxQGinbK6b_5L8dUOn-1" target="vaJxQGinbK6b_5L8dUOn-19">
          <mxGeometry relative="1" as="geometry">
            <mxPoint x="-695" y="130" as="sourcePoint" />
            <mxPoint x="-661" y="31" as="targetPoint" />
          </mxGeometry>
        </mxCell>
        <mxCell id="vaJxQGinbK6b_5L8dUOn-33" value="clienteEmpresa" style="rounded=0;whiteSpace=wrap;html=1;" vertex="1" parent="1">
          <mxGeometry x="-830" y="222.5" width="100" height="30" as="geometry" />
        </mxCell>
        <mxCell id="vaJxQGinbK6b_5L8dUOn-34" value="Horario" style="rounded=0;whiteSpace=wrap;html=1;" vertex="1" parent="1">
          <mxGeometry x="-730" y="650" width="65" height="30" as="geometry" />
        </mxCell>
        <mxCell id="vaJxQGinbK6b_5L8dUOn-35" value="Ruta" style="rounded=0;whiteSpace=wrap;html=1;" vertex="1" parent="1">
          <mxGeometry x="-81.5" y="632.5" width="60" height="30" as="geometry" />
        </mxCell>
        <mxCell id="vaJxQGinbK6b_5L8dUOn-36" value="Hora_de_salida" style="ellipse;whiteSpace=wrap;html=1;" vertex="1" parent="1">
          <mxGeometry x="-860" y="550" width="90" height="40" as="geometry" />
        </mxCell>
        <mxCell id="vaJxQGinbK6b_5L8dUOn-37" value="Fecha_de_salida" style="ellipse;whiteSpace=wrap;html=1;" vertex="1" parent="1">
          <mxGeometry x="-730" y="530" width="105" height="40" as="geometry" />
        </mxCell>
        <mxCell id="vaJxQGinbK6b_5L8dUOn-38" value="Hora_de_llegada" style="ellipse;whiteSpace=wrap;html=1;" vertex="1" parent="1">
          <mxGeometry x="-920" y="640" width="100" height="40" as="geometry" />
        </mxCell>
        <mxCell id="vaJxQGinbK6b_5L8dUOn-39" value="Duracion" style="ellipse;whiteSpace=wrap;html=1;" vertex="1" parent="1">
          <mxGeometry x="-910" y="720" width="100" height="40" as="geometry" />
        </mxCell>
        <mxCell id="vaJxQGinbK6b_5L8dUOn-40" value="ID_Ruta" style="ellipse;whiteSpace=wrap;html=1;" vertex="1" parent="1">
          <mxGeometry x="-119" y="752.5" width="110" height="40" as="geometry" />
        </mxCell>
        <mxCell id="vaJxQGinbK6b_5L8dUOn-41" value="ruc" style="ellipse;whiteSpace=wrap;html=1;" vertex="1" parent="1">
          <mxGeometry x="-940" y="182.5" width="70" height="30" as="geometry" />
        </mxCell>
        <mxCell id="vaJxQGinbK6b_5L8dUOn-42" value="razon_social" style="ellipse;whiteSpace=wrap;html=1;" vertex="1" parent="1">
          <mxGeometry x="-950" y="242.5" width="70" height="30" as="geometry" />
        </mxCell>
        <mxCell id="vaJxQGinbK6b_5L8dUOn-43" value="direcciÃ³n" style="ellipse;whiteSpace=wrap;html=1;" vertex="1" parent="1">
          <mxGeometry x="-930" y="302.5" width="70" height="30" as="geometry" />
        </mxCell>
        <mxCell id="vaJxQGinbK6b_5L8dUOn-44" value="" style="endArrow=none;html=1;rounded=0;exitX=1;exitY=0.5;exitDx=0;exitDy=0;entryX=0;entryY=0;entryDx=0;entryDy=0;" edge="1" parent="1" source="vaJxQGinbK6b_5L8dUOn-41" target="vaJxQGinbK6b_5L8dUOn-33">
          <mxGeometry relative="1" as="geometry">
            <mxPoint x="-867" y="135.5" as="sourcePoint" />
            <mxPoint x="-801" y="33.5" as="targetPoint" />
          </mxGeometry>
        </mxCell>
        <mxCell id="vaJxQGinbK6b_5L8dUOn-45" value="" style="endArrow=none;html=1;rounded=0;exitX=1;exitY=0.5;exitDx=0;exitDy=0;entryX=0;entryY=0.5;entryDx=0;entryDy=0;" edge="1" parent="1" source="vaJxQGinbK6b_5L8dUOn-42" target="vaJxQGinbK6b_5L8dUOn-33">
          <mxGeometry relative="1" as="geometry">
            <mxPoint x="-867" y="135.5" as="sourcePoint" />
            <mxPoint x="-801" y="33.5" as="targetPoint" />
          </mxGeometry>
        </mxCell>
        <mxCell id="vaJxQGinbK6b_5L8dUOn-46" value="" style="endArrow=none;html=1;rounded=0;exitX=1;exitY=0.5;exitDx=0;exitDy=0;entryX=0.25;entryY=1;entryDx=0;entryDy=0;" edge="1" parent="1" source="vaJxQGinbK6b_5L8dUOn-43" target="vaJxQGinbK6b_5L8dUOn-33">
          <mxGeometry relative="1" as="geometry">
            <mxPoint x="-867" y="135.5" as="sourcePoint" />
            <mxPoint x="-801" y="33.5" as="targetPoint" />
          </mxGeometry>
        </mxCell>
        <mxCell id="vaJxQGinbK6b_5L8dUOn-47" value="NombreRuta" style="ellipse;whiteSpace=wrap;html=1;" vertex="1" parent="1">
          <mxGeometry x="21" y="712.5" width="119" height="40" as="geometry" />
        </mxCell>
        <mxCell id="vaJxQGinbK6b_5L8dUOn-48" value="DuraciÃ³n" style="ellipse;whiteSpace=wrap;html=1;" vertex="1" parent="1">
          <mxGeometry x="47.5" y="632.5" width="92.5" height="40" as="geometry" />
        </mxCell>
        <mxCell id="vaJxQGinbK6b_5L8dUOn-49" value="reserva" style="rounded=0;whiteSpace=wrap;html=1;" vertex="1" parent="1">
          <mxGeometry x="-287" y="-10" width="60" height="30" as="geometry" />
        </mxCell>
        <mxCell id="vaJxQGinbK6b_5L8dUOn-50" value="id" style="ellipse;whiteSpace=wrap;html=1;" vertex="1" parent="1">
          <mxGeometry x="-300" y="-105" width="70" height="30" as="geometry" />
        </mxCell>
        <mxCell id="vaJxQGinbK6b_5L8dUOn-51" value="fecha" style="ellipse;whiteSpace=wrap;html=1;" vertex="1" parent="1">
          <mxGeometry x="-380" y="-65" width="70" height="30" as="geometry" />
        </mxCell>
        <mxCell id="vaJxQGinbK6b_5L8dUOn-52" value="dia" style="ellipse;whiteSpace=wrap;html=1;" vertex="1" parent="1">
          <mxGeometry x="-910" y="5" width="40" height="20" as="geometry" />
        </mxCell>
        <mxCell id="vaJxQGinbK6b_5L8dUOn-53" value="mes" style="ellipse;whiteSpace=wrap;html=1;" vertex="1" parent="1">
          <mxGeometry x="-920" y="35" width="40" height="20" as="geometry" />
        </mxCell>
        <mxCell id="vaJxQGinbK6b_5L8dUOn-54" value="aÃ±o" style="ellipse;whiteSpace=wrap;html=1;" vertex="1" parent="1">
          <mxGeometry x="-920" y="70" width="40" height="20" as="geometry" />
        </mxCell>
        <mxCell id="vaJxQGinbK6b_5L8dUOn-55" value="" style="endArrow=none;html=1;rounded=0;exitX=1;exitY=0.5;exitDx=0;exitDy=0;entryX=0.236;entryY=0.099;entryDx=0;entryDy=0;entryPerimeter=0;" edge="1" parent="1" source="vaJxQGinbK6b_5L8dUOn-52" target="vaJxQGinbK6b_5L8dUOn-13">
          <mxGeometry relative="1" as="geometry">
            <mxPoint x="-747" y="128" as="sourcePoint" />
            <mxPoint x="-869.9999999999998" y="40" as="targetPoint" />
          </mxGeometry>
        </mxCell>
        <mxCell id="vaJxQGinbK6b_5L8dUOn-56" value="" style="endArrow=none;html=1;rounded=0;exitX=1;exitY=0.5;exitDx=0;exitDy=0;entryX=0;entryY=0.5;entryDx=0;entryDy=0;" edge="1" parent="1" source="vaJxQGinbK6b_5L8dUOn-53" target="vaJxQGinbK6b_5L8dUOn-13">
          <mxGeometry relative="1" as="geometry">
            <mxPoint x="-860" y="25" as="sourcePoint" />
            <mxPoint x="-870.9200000000001" y="43.50999999999999" as="targetPoint" />
          </mxGeometry>
        </mxCell>
        <mxCell id="vaJxQGinbK6b_5L8dUOn-57" value="" style="endArrow=none;html=1;rounded=0;exitX=0.763;exitY=0.076;exitDx=0;exitDy=0;entryX=0;entryY=1;entryDx=0;entryDy=0;exitPerimeter=0;" edge="1" parent="1" source="vaJxQGinbK6b_5L8dUOn-54" target="vaJxQGinbK6b_5L8dUOn-13">
          <mxGeometry relative="1" as="geometry">
            <mxPoint x="-850" y="60" as="sourcePoint" />
            <mxPoint x="-810" y="62" as="targetPoint" />
          </mxGeometry>
        </mxCell>
        <mxCell id="vaJxQGinbK6b_5L8dUOn-58" value="Estado" style="ellipse;whiteSpace=wrap;html=1;" vertex="1" parent="1">
          <mxGeometry x="-770" y="790" width="100" height="40" as="geometry" />
        </mxCell>
        <mxCell id="vaJxQGinbK6b_5L8dUOn-59" value="" style="endArrow=none;html=1;rounded=0;exitX=0.5;exitY=0;exitDx=0;exitDy=0;" edge="1" parent="1" source="vaJxQGinbK6b_5L8dUOn-34">
          <mxGeometry width="50" height="50" relative="1" as="geometry">
            <mxPoint x="-720" y="620" as="sourcePoint" />
            <mxPoint x="-670" y="570" as="targetPoint" />
          </mxGeometry>
        </mxCell>
        <mxCell id="vaJxQGinbK6b_5L8dUOn-60" value="" style="endArrow=none;html=1;rounded=0;exitX=0.5;exitY=0;exitDx=0;exitDy=0;entryX=0.5;entryY=1;entryDx=0;entryDy=0;" edge="1" parent="1" source="vaJxQGinbK6b_5L8dUOn-49" target="vaJxQGinbK6b_5L8dUOn-50">
          <mxGeometry relative="1" as="geometry">
            <mxPoint x="-445" y="-85" as="sourcePoint" />
            <mxPoint x="-400" y="-110" as="targetPoint" />
          </mxGeometry>
        </mxCell>
        <mxCell id="vaJxQGinbK6b_5L8dUOn-61" value="" style="endArrow=none;html=1;rounded=0;exitX=0;exitY=0;exitDx=0;exitDy=0;entryX=0.743;entryY=0.955;entryDx=0;entryDy=0;entryPerimeter=0;" edge="1" parent="1" source="vaJxQGinbK6b_5L8dUOn-34" target="vaJxQGinbK6b_5L8dUOn-36">
          <mxGeometry width="50" height="50" relative="1" as="geometry">
            <mxPoint x="-780.4" y="670" as="sourcePoint" />
            <mxPoint x="-780.4" y="590" as="targetPoint" />
          </mxGeometry>
        </mxCell>
        <mxCell id="vaJxQGinbK6b_5L8dUOn-62" value="" style="endArrow=none;html=1;rounded=0;exitX=0;exitY=0.25;exitDx=0;exitDy=0;entryX=0.5;entryY=1;entryDx=0;entryDy=0;" edge="1" parent="1" source="vaJxQGinbK6b_5L8dUOn-49" target="vaJxQGinbK6b_5L8dUOn-51">
          <mxGeometry relative="1" as="geometry">
            <mxPoint x="-240" y="-15" as="sourcePoint" />
            <mxPoint x="-255" y="-65" as="targetPoint" />
          </mxGeometry>
        </mxCell>
        <mxCell id="vaJxQGinbK6b_5L8dUOn-63" value="" style="endArrow=none;html=1;rounded=0;exitX=0;exitY=0.25;exitDx=0;exitDy=0;entryX=0.743;entryY=0.955;entryDx=0;entryDy=0;entryPerimeter=0;" edge="1" parent="1" source="vaJxQGinbK6b_5L8dUOn-34">
          <mxGeometry width="50" height="50" relative="1" as="geometry">
            <mxPoint x="-757" y="722" as="sourcePoint" />
            <mxPoint x="-820" y="660" as="targetPoint" />
          </mxGeometry>
        </mxCell>
        <mxCell id="vaJxQGinbK6b_5L8dUOn-64" value="" style="endArrow=none;html=1;rounded=0;exitX=0;exitY=0.75;exitDx=0;exitDy=0;entryX=0.743;entryY=0.955;entryDx=0;entryDy=0;entryPerimeter=0;" edge="1" parent="1" source="vaJxQGinbK6b_5L8dUOn-34">
          <mxGeometry width="50" height="50" relative="1" as="geometry">
            <mxPoint x="-720" y="745" as="sourcePoint" />
            <mxPoint x="-810" y="740" as="targetPoint" />
          </mxGeometry>
        </mxCell>
        <mxCell id="vaJxQGinbK6b_5L8dUOn-65" value="" style="endArrow=none;html=1;rounded=0;exitX=0.25;exitY=1;exitDx=0;exitDy=0;entryX=0.743;entryY=0.955;entryDx=0;entryDy=0;entryPerimeter=0;" edge="1" parent="1" source="vaJxQGinbK6b_5L8dUOn-34">
          <mxGeometry width="50" height="50" relative="1" as="geometry">
            <mxPoint x="-630" y="745" as="sourcePoint" />
            <mxPoint x="-710" y="790" as="targetPoint" />
          </mxGeometry>
        </mxCell>
        <mxCell id="vaJxQGinbK6b_5L8dUOn-66" value="estado" style="ellipse;whiteSpace=wrap;html=1;" vertex="1" parent="1">
          <mxGeometry x="-200" y="-105" width="70" height="30" as="geometry" />
        </mxCell>
        <mxCell id="vaJxQGinbK6b_5L8dUOn-67" value="" style="endArrow=none;html=1;rounded=0;exitX=0.75;exitY=0;exitDx=0;exitDy=0;entryX=0;entryY=1;entryDx=0;entryDy=0;" edge="1" parent="1" source="vaJxQGinbK6b_5L8dUOn-49" target="vaJxQGinbK6b_5L8dUOn-66">
          <mxGeometry relative="1" as="geometry">
            <mxPoint x="-240" y="-15" as="sourcePoint" />
            <mxPoint x="-255" y="-65" as="targetPoint" />
          </mxGeometry>
        </mxCell>
        <mxCell id="vaJxQGinbK6b_5L8dUOn-68" value="empleado" style="rounded=0;whiteSpace=wrap;html=1;" vertex="1" parent="1">
          <mxGeometry x="239.5" y="90" width="60" height="30" as="geometry" />
        </mxCell>
        <mxCell id="vaJxQGinbK6b_5L8dUOn-69" value="nombre_completo" style="ellipse;whiteSpace=wrap;html=1;" vertex="1" parent="1">
          <mxGeometry x="149.5" width="120" height="40" as="geometry" />
        </mxCell>
        <mxCell id="vaJxQGinbK6b_5L8dUOn-70" value="Pago" style="rounded=0;whiteSpace=wrap;html=1;" vertex="1" parent="1">
          <mxGeometry x="-330" y="422.5" width="76" height="35" as="geometry" />
        </mxCell>
        <mxCell id="vaJxQGinbK6b_5L8dUOn-71" value="nombre" style="ellipse;whiteSpace=wrap;html=1;" vertex="1" parent="1">
          <mxGeometry x="109.5" y="-50" width="60" height="30" as="geometry" />
        </mxCell>
        <mxCell id="vaJxQGinbK6b_5L8dUOn-72" value="apellido" style="ellipse;whiteSpace=wrap;html=1;" vertex="1" parent="1">
          <mxGeometry x="259.5" y="-50" width="70" height="30" as="geometry" />
        </mxCell>
        <mxCell id="vaJxQGinbK6b_5L8dUOn-73" value="" style="endArrow=none;html=1;rounded=0;entryX=0.5;entryY=1;entryDx=0;entryDy=0;exitX=0.313;exitY=0.038;exitDx=0;exitDy=0;exitPerimeter=0;" edge="1" parent="1" source="vaJxQGinbK6b_5L8dUOn-69" target="vaJxQGinbK6b_5L8dUOn-71">
          <mxGeometry width="50" height="50" relative="1" as="geometry">
            <mxPoint x="259.5" y="90" as="sourcePoint" />
            <mxPoint x="309.5" y="40" as="targetPoint" />
          </mxGeometry>
        </mxCell>
        <mxCell id="vaJxQGinbK6b_5L8dUOn-74" value="" style="endArrow=none;html=1;rounded=0;entryX=0;entryY=1;entryDx=0;entryDy=0;exitX=0.72;exitY=0.01;exitDx=0;exitDy=0;exitPerimeter=0;" edge="1" parent="1" source="vaJxQGinbK6b_5L8dUOn-69" target="vaJxQGinbK6b_5L8dUOn-72">
          <mxGeometry width="50" height="50" relative="1" as="geometry">
            <mxPoint x="197.5" y="32" as="sourcePoint" />
            <mxPoint x="149.5" y="-10" as="targetPoint" />
          </mxGeometry>
        </mxCell>
        <mxCell id="vaJxQGinbK6b_5L8dUOn-75" value="documento" style="ellipse;whiteSpace=wrap;html=1;" vertex="1" parent="1">
          <mxGeometry x="329.5" y="-20" width="70" height="30" as="geometry" />
        </mxCell>
        <mxCell id="vaJxQGinbK6b_5L8dUOn-76" value="" style="endArrow=none;html=1;rounded=0;entryX=0.5;entryY=1;entryDx=0;entryDy=0;exitX=0;exitY=0;exitDx=0;exitDy=0;" edge="1" parent="1" source="vaJxQGinbK6b_5L8dUOn-68" target="vaJxQGinbK6b_5L8dUOn-69">
          <mxGeometry width="50" height="50" relative="1" as="geometry">
            <mxPoint x="257.5" y="72" as="sourcePoint" />
            <mxPoint x="209.5" y="50" as="targetPoint" />
          </mxGeometry>
        </mxCell>
        <mxCell id="vaJxQGinbK6b_5L8dUOn-77" value="" style="endArrow=none;html=1;rounded=0;entryX=0.5;entryY=1;entryDx=0;entryDy=0;exitX=0.75;exitY=0;exitDx=0;exitDy=0;" edge="1" parent="1" source="vaJxQGinbK6b_5L8dUOn-68" target="vaJxQGinbK6b_5L8dUOn-75">
          <mxGeometry width="50" height="50" relative="1" as="geometry">
            <mxPoint x="249.5" y="100" as="sourcePoint" />
            <mxPoint x="219.5" y="50" as="targetPoint" />
          </mxGeometry>
        </mxCell>
        <mxCell id="vaJxQGinbK6b_5L8dUOn-78" value="cantidad_reservas" style="ellipse;whiteSpace=wrap;html=1;" vertex="1" parent="1">
          <mxGeometry x="-250" y="352.5" width="105" height="40" as="geometry" />
        </mxCell>
        <mxCell id="vaJxQGinbK6b_5L8dUOn-79" value="" style="endArrow=none;html=1;rounded=0;entryX=1;entryY=0.5;entryDx=0;entryDy=0;exitX=0;exitY=0.5;exitDx=0;exitDy=0;" edge="1" parent="1" source="vaJxQGinbK6b_5L8dUOn-68" target="vaJxQGinbK6b_5L8dUOn-80">
          <mxGeometry width="50" height="50" relative="1" as="geometry">
            <mxPoint x="249.5" y="100" as="sourcePoint" />
            <mxPoint x="219.5" y="50" as="targetPoint" />
          </mxGeometry>
        </mxCell>
        <mxCell id="vaJxQGinbK6b_5L8dUOn-80" value="correo" style="ellipse;whiteSpace=wrap;html=1;" vertex="1" parent="1">
          <mxGeometry x="109.5" y="90" width="70" height="30" as="geometry" />
        </mxCell>
        <mxCell id="vaJxQGinbK6b_5L8dUOn-81" value="Metodo" style="ellipse;whiteSpace=wrap;html=1;" vertex="1" parent="1">
          <mxGeometry x="-430" y="332.5" width="105" height="40" as="geometry" />
        </mxCell>
        <mxCell id="vaJxQGinbK6b_5L8dUOn-82" value="Fecha" style="ellipse;whiteSpace=wrap;html=1;" vertex="1" parent="1">
          <mxGeometry x="-460" y="417.5" width="105" height="40" as="geometry" />
        </mxCell>
        <mxCell id="vaJxQGinbK6b_5L8dUOn-83" value="id" style="ellipse;whiteSpace=wrap;html=1;" vertex="1" parent="1">
          <mxGeometry x="349.5" y="60" width="70" height="30" as="geometry" />
        </mxCell>
        <mxCell id="vaJxQGinbK6b_5L8dUOn-84" value="" style="endArrow=none;html=1;rounded=0;entryX=0;entryY=0.5;entryDx=0;entryDy=0;exitX=1;exitY=0.5;exitDx=0;exitDy=0;" edge="1" parent="1" source="vaJxQGinbK6b_5L8dUOn-68" target="vaJxQGinbK6b_5L8dUOn-83">
          <mxGeometry width="50" height="50" relative="1" as="geometry">
            <mxPoint x="294.5" y="100" as="sourcePoint" />
            <mxPoint x="374.5" y="20" as="targetPoint" />
          </mxGeometry>
        </mxCell>
        <mxCell id="vaJxQGinbK6b_5L8dUOn-85" value="" style="endArrow=none;html=1;rounded=0;entryX=0;entryY=0.5;entryDx=0;entryDy=0;" edge="1" parent="1" source="vaJxQGinbK6b_5L8dUOn-82" target="vaJxQGinbK6b_5L8dUOn-70">
          <mxGeometry width="50" height="50" relative="1" as="geometry">
            <mxPoint x="-360.21000000000004" y="463.22000000000025" as="sourcePoint" />
            <mxPoint x="-330" y="422.5" as="targetPoint" />
          </mxGeometry>
        </mxCell>
        <mxCell id="vaJxQGinbK6b_5L8dUOn-86" value="" style="endArrow=none;html=1;rounded=0;entryX=0;entryY=0;entryDx=0;entryDy=0;exitX=1;exitY=1;exitDx=0;exitDy=0;" edge="1" parent="1" source="vaJxQGinbK6b_5L8dUOn-81" target="vaJxQGinbK6b_5L8dUOn-70">
          <mxGeometry width="50" height="50" relative="1" as="geometry">
            <mxPoint x="-385" y="402.5" as="sourcePoint" />
            <mxPoint x="-281" y="386.5" as="targetPoint" />
          </mxGeometry>
        </mxCell>
        <mxCell id="vaJxQGinbK6b_5L8dUOn-87" value="" style="endArrow=none;html=1;rounded=0;entryX=0.5;entryY=0;entryDx=0;entryDy=0;exitX=0.5;exitY=1;exitDx=0;exitDy=0;" edge="1" parent="1" source="vaJxQGinbK6b_5L8dUOn-78" target="vaJxQGinbK6b_5L8dUOn-70">
          <mxGeometry width="50" height="50" relative="1" as="geometry">
            <mxPoint x="-269" y="356.5" as="sourcePoint" />
            <mxPoint x="-200" y="422.5" as="targetPoint" />
          </mxGeometry>
        </mxCell>
        <mxCell id="vaJxQGinbK6b_5L8dUOn-88" value="estacion" style="rounded=0;whiteSpace=wrap;html=1;" vertex="1" parent="1">
          <mxGeometry x="-480" y="645" width="60" height="30" as="geometry" />
        </mxCell>
        <mxCell id="vaJxQGinbK6b_5L8dUOn-89" value="nombre" style="ellipse;whiteSpace=wrap;html=1;" vertex="1" parent="1">
          <mxGeometry x="-399.5" y="600" width="70" height="30" as="geometry" />
        </mxCell>
        <mxCell id="vaJxQGinbK6b_5L8dUOn-90" value="direccion" style="ellipse;whiteSpace=wrap;html=1;" vertex="1" parent="1">
          <mxGeometry x="-399.5" y="680" width="70" height="30" as="geometry" />
        </mxCell>
        <mxCell id="vaJxQGinbK6b_5L8dUOn-91" value="Origen" style="ellipse;whiteSpace=wrap;html=1;" vertex="1" parent="1">
          <mxGeometry x="-101.5" y="527.5" width="100" height="40" as="geometry" />
        </mxCell>
        <mxCell id="vaJxQGinbK6b_5L8dUOn-92" value="" style="endArrow=none;html=1;rounded=0;exitX=0.5;exitY=0;exitDx=0;exitDy=0;entryX=0;entryY=0.5;entryDx=0;entryDy=0;" edge="1" parent="1" source="vaJxQGinbK6b_5L8dUOn-88" target="vaJxQGinbK6b_5L8dUOn-89">
          <mxGeometry relative="1" as="geometry">
            <mxPoint x="-752.5" y="635" as="sourcePoint" />
            <mxPoint x="-697.5" y="570" as="targetPoint" />
          </mxGeometry>
        </mxCell>
        <mxCell id="vaJxQGinbK6b_5L8dUOn-93" value="Llegada" style="ellipse;whiteSpace=wrap;html=1;" vertex="1" parent="1">
          <mxGeometry x="21" y="557.5" width="100" height="40" as="geometry" />
        </mxCell>
        <mxCell id="vaJxQGinbK6b_5L8dUOn-94" value="" style="endArrow=none;html=1;rounded=0;exitX=0.5;exitY=1;exitDx=0;exitDy=0;entryX=0;entryY=0.5;entryDx=0;entryDy=0;" edge="1" parent="1" source="vaJxQGinbK6b_5L8dUOn-88" target="vaJxQGinbK6b_5L8dUOn-90">
          <mxGeometry relative="1" as="geometry">
            <mxPoint x="-452.5" y="720" as="sourcePoint" />
            <mxPoint x="-402.5" y="690" as="targetPoint" />
          </mxGeometry>
        </mxCell>
        <mxCell id="vaJxQGinbK6b_5L8dUOn-95" value="" style="endArrow=none;html=1;rounded=0;exitX=0;exitY=1;exitDx=0;exitDy=0;entryX=1;entryY=0;entryDx=0;entryDy=0;" edge="1" parent="1" source="vaJxQGinbK6b_5L8dUOn-93" target="vaJxQGinbK6b_5L8dUOn-35">
          <mxGeometry width="50" height="50" relative="1" as="geometry">
            <mxPoint x="58.5" y="592.5" as="sourcePoint" />
            <mxPoint x="-21.5" y="637.5" as="targetPoint" />
          </mxGeometry>
        </mxCell>
        <mxCell id="vaJxQGinbK6b_5L8dUOn-96" value="" style="endArrow=none;html=1;rounded=0;exitX=0.25;exitY=0;exitDx=0;exitDy=0;entryX=0.5;entryY=1;entryDx=0;entryDy=0;" edge="1" parent="1" source="vaJxQGinbK6b_5L8dUOn-35" target="vaJxQGinbK6b_5L8dUOn-91">
          <mxGeometry width="50" height="50" relative="1" as="geometry">
            <mxPoint x="451" y="772.5" as="sourcePoint" />
            <mxPoint x="-79" y="572.5" as="targetPoint" />
          </mxGeometry>
        </mxCell>
        <mxCell id="vaJxQGinbK6b_5L8dUOn-97" value="" style="endArrow=none;html=1;rounded=0;exitX=1;exitY=1;exitDx=0;exitDy=0;entryX=0;entryY=0.5;entryDx=0;entryDy=0;" edge="1" parent="1" source="vaJxQGinbK6b_5L8dUOn-35" target="vaJxQGinbK6b_5L8dUOn-47">
          <mxGeometry width="50" height="50" relative="1" as="geometry">
            <mxPoint x="-56" y="672.5" as="sourcePoint" />
            <mxPoint x="-46" y="782.5" as="targetPoint" />
          </mxGeometry>
        </mxCell>
        <mxCell id="vaJxQGinbK6b_5L8dUOn-98" value="" style="endArrow=none;html=1;rounded=0;exitX=0.5;exitY=1;exitDx=0;exitDy=0;entryX=0.459;entryY=0;entryDx=0;entryDy=0;entryPerimeter=0;" edge="1" parent="1" source="vaJxQGinbK6b_5L8dUOn-35" target="vaJxQGinbK6b_5L8dUOn-40">
          <mxGeometry width="50" height="50" relative="1" as="geometry">
            <mxPoint x="-36" y="727.5" as="sourcePoint" />
            <mxPoint x="-49" y="662.5" as="targetPoint" />
          </mxGeometry>
        </mxCell>
        <mxCell id="vaJxQGinbK6b_5L8dUOn-99" value="departamento" style="ellipse;whiteSpace=wrap;html=1;" vertex="1" parent="1">
          <mxGeometry x="-480" y="740" width="70" height="30" as="geometry" />
        </mxCell>
        <mxCell id="vaJxQGinbK6b_5L8dUOn-100" value="" style="endArrow=none;html=1;rounded=0;exitX=0;exitY=0.5;exitDx=0;exitDy=0;entryX=1;entryY=0.5;entryDx=0;entryDy=0;" edge="1" parent="1" source="vaJxQGinbK6b_5L8dUOn-48" target="vaJxQGinbK6b_5L8dUOn-35">
          <mxGeometry width="50" height="50" relative="1" as="geometry">
            <mxPoint x="46" y="601.5" as="sourcePoint" />
            <mxPoint x="-11" y="642.5" as="targetPoint" />
          </mxGeometry>
        </mxCell>
        <mxCell id="vaJxQGinbK6b_5L8dUOn-101" value="" style="endArrow=none;html=1;rounded=0;exitX=0.25;exitY=1;exitDx=0;exitDy=0;entryX=0.5;entryY=0;entryDx=0;entryDy=0;" edge="1" parent="1" source="vaJxQGinbK6b_5L8dUOn-88" target="vaJxQGinbK6b_5L8dUOn-99">
          <mxGeometry relative="1" as="geometry">
            <mxPoint x="-439.5" y="685" as="sourcePoint" />
            <mxPoint x="-389.5" y="705" as="targetPoint" />
          </mxGeometry>
        </mxCell>
        <mxCell id="vaJxQGinbK6b_5L8dUOn-102" value="precio" style="ellipse;whiteSpace=wrap;html=1;" vertex="1" parent="1">
          <mxGeometry x="349.5" y="310" width="70" height="30" as="geometry" />
        </mxCell>
        <mxCell id="vaJxQGinbK6b_5L8dUOn-103" value="" style="endArrow=none;html=1;rounded=0;entryX=0.322;entryY=0.949;entryDx=0;entryDy=0;entryPerimeter=0;exitX=0.5;exitY=0;exitDx=0;exitDy=0;" edge="1" parent="1" source="vaJxQGinbK6b_5L8dUOn-5" target="vaJxQGinbK6b_5L8dUOn-105">
          <mxGeometry width="50" height="50" relative="1" as="geometry">
            <mxPoint x="299.5" y="330" as="sourcePoint" />
            <mxPoint x="339" y="210" as="targetPoint" />
          </mxGeometry>
        </mxCell>
        <mxCell id="vaJxQGinbK6b_5L8dUOn-104" value="" style="endArrow=none;html=1;rounded=0;entryX=0;entryY=0.5;entryDx=0;entryDy=0;exitX=0.5;exitY=0;exitDx=0;exitDy=0;" edge="1" parent="1" source="vaJxQGinbK6b_5L8dUOn-5" target="vaJxQGinbK6b_5L8dUOn-102">
          <mxGeometry width="50" height="50" relative="1" as="geometry">
            <mxPoint x="181.5" y="390" as="sourcePoint" />
            <mxPoint x="322.5" y="298" as="targetPoint" />
          </mxGeometry>
        </mxCell>
        <mxCell id="vaJxQGinbK6b_5L8dUOn-105" value="DescripciÃ³n" style="ellipse;whiteSpace=wrap;html=1;" vertex="1" parent="1">
          <mxGeometry x="289.5" y="260" width="70" height="30" as="geometry" />
        </mxCell>
        <mxCell id="vaJxQGinbK6b_5L8dUOn-106" value="puede ser" style="shape=rhombus;perimeter=rhombusPerimeter;whiteSpace=wrap;html=1;align=center;" vertex="1" parent="1">
          <mxGeometry x="-700" y="140" width="120" height="60" as="geometry" />
        </mxCell>
        <mxCell id="vaJxQGinbK6b_5L8dUOn-107" value="" style="endArrow=none;html=1;rounded=0;exitX=0.5;exitY=0;exitDx=0;exitDy=0;entryX=0.5;entryY=1;entryDx=0;entryDy=0;" edge="1" parent="1" source="vaJxQGinbK6b_5L8dUOn-106" target="vaJxQGinbK6b_5L8dUOn-1">
          <mxGeometry relative="1" as="geometry">
            <mxPoint x="-727" y="133" as="sourcePoint" />
            <mxPoint x="-661" y="31" as="targetPoint" />
          </mxGeometry>
        </mxCell>
        <mxCell id="vaJxQGinbK6b_5L8dUOn-108" value="" style="endArrow=none;html=1;rounded=0;exitX=0.5;exitY=0;exitDx=0;exitDy=0;entryX=0.5;entryY=1;entryDx=0;entryDy=0;" edge="1" parent="1" source="vaJxQGinbK6b_5L8dUOn-33" target="vaJxQGinbK6b_5L8dUOn-106">
          <mxGeometry relative="1" as="geometry">
            <mxPoint x="-625" y="140" as="sourcePoint" />
            <mxPoint x="-640" y="30" as="targetPoint" />
          </mxGeometry>
        </mxCell>
      </root>
    </mxGraphModel>
  </diagram>
</mxfile>
